# xmcd CD database file
#
# Track frame offsets:
#	150
#	14798
#	29788
#	48512
#	64862
#	87517
#	102125
#	120655
#	140070
#	155620
#	172925
#
# Disc length: 2446 seconds
#
# Revision: 6
# Processed by: cddbd v1.5.2PL0 Copyright (c) Steve Scherf et al.
# Submitted via: CDex 1.70beta3
#
DISCID=9d098c0b
DTITLE=サディスティック・ミカ・バンド - 加藤和彦とサディスティック・ミカ・バンド
DYEAR=1973
DGENRE=Rock
TTITLE0=ダンス・ハ・スンダ (Dance is over)
TTITLE1=怪傑シルヴァー・チャイルド (Silver child)
TTITLE2=宇宙時計 (Cosmic watch)
TTITLE3=シトロン・ガール: 金牛座流星群に歌いつがれた恋歌 (Citron girl)
TTITLE4=影絵小屋 (Shadow show)
TTITLE5=空の果てに腰かけて ((I'm sitting on) The edge of sky)
TTITLE6=銀河列車 (Gallaxy way)
TTITLE7=アリエヌ共和国 (Arienu republic)
TTITLE8=恋のミルキー・ウェイ (Milky way)
TTITLE9=Picnic boogie
TTITLE10=Cycling boogie
EXTD=YEAR: 1973
EXTT0=
EXTT1=
EXTT2=
EXTT3=
EXTT4=
EXTT5=
EXTT6=
EXTT7=
EXTT8=
EXTT9=
EXTT10=
PLAYORDER=
